<?xml version="1.0" encoding="utf-8"?>
<!-- Generator: Adobe Illustrator 27.8.0, SVG Export Plug-In . SVG Version: 6.00 Build 0)  -->
<svg version="1.1" id="Layer_2_00000105402272665170805030000001785535801919599257_"
	 xmlns="http://www.w3.org/2000/svg" xmlns:xlink="http://www.w3.org/1999/xlink" x="0px" y="0px" viewBox="0 0 699.8 777"
	 style="enable-background:new 0 0 699.8 777;" xml:space="preserve">
<style type="text/css">
	.st0{fill:#231F20;}
	.st1{enable-background:new    ;}
	.st2{fill:#EC008C;}
</style>
<g id="Layer_1-2">
	<g>
		<g>
			<g>
				<path class="st0" d="M294.2,254.2c26-5.9,51.4-5.8,76.8-0.1c3.8-4.2,6-9,7-14.2c3.2-16.6,6.2-33.3,9.1-50
					c2.1-12.3,3.7-24.7,6-37c0.8-4.1,2.8-8,4.6-11.7c2.4-4.8,6.7-6.9,11.9-7c6.3-0.2,11.9,1.9,16.8,5.8c12,9.7,22.3,21.1,30.7,34
					c20.2,31,32.2,64.9,35.4,101.9c1.1,12.9,3.6,25.6,2.3,38.6c-1,9.4-1,19.2-3.9,28.1c-2.3,7.1-0.5,12.3,1.9,18.3
					c8.4,21.5,9.3,43.1,1.6,65.1c-5.1,14.6-7,29.7-4.9,45.3c2.6,20-4.7,37.5-16.4,53c-6.1,8.1-13.9,15.1-21.5,22.1
					c-7.7,7.1-16,13.6-24.1,20.2c-7,5.8-12.5,12.5-15.1,21.4c-1.2,4.2-2.8,8.5-4.6,12.5c-6.3,14.1-15.9,25.7-30.8,30.7
					c-7.8,2.7-15.1,6.2-22.6,9.4c-14.5,6.2-29,6.1-43.4-0.2c-3.7-1.6-7.1-3.7-10.7-5.5c-1.1-0.5-2.1-1.2-3.3-1.4
					c-20.9-3.8-32.7-17.6-40.4-36.1c-1.3-3.2-2.6-6.4-3.5-9.7c-2.4-8.8-7.9-15.2-14.7-21C225.8,556,213.2,545.2,201,534
					c-7.5-6.8-13.2-15.1-17.5-24.5c-6-13.1-9.6-26.5-7.2-41.1c2.4-14.5-0.3-28.7-5-42.3c-7.6-22.2-6.9-44,1.6-65.7
					c2.4-6.1,2.2-10.6,1.2-18.2c-2.9-17-5.1-33.9-2.9-51.2c2.2-17,3.1-34.2,7.6-50.8c8.8-32.4,22.9-62,45.8-86.9
					c4.6-5,9.9-9.5,15.1-13.9c2.2-1.9,5.1-3.2,8-4.2c10.6-3.5,18.1-0.5,21.9,9.9c2.8,7.5,4.4,15.5,5.7,23.4
					c3.2,18.9,5.5,37.9,8.9,56.8c1.4,8.1,4.3,15.9,6.7,23.8C291.6,250.8,292.9,252.2,294.2,254.2L294.2,254.2z M286.5,256.1
					c-2.1-6.1-4.7-11.9-6-17.9c-2.9-13.4-5.3-26.9-7.5-40.4c-2.2-13.1-3.7-26.4-5.9-39.5c-0.7-4.3-2.2-8.6-4-12.6
					c-2.3-5.1-5.4-6.6-10.8-5.1c-3.4,0.9-6.8,2.7-9.5,4.9c-14.7,11.7-26,26.4-35.3,42.6c-23.4,40.8-31.2,85.2-29.5,131.6
					c0.3,8.8,2,17.6,3.5,26.4c0.9,5,0.4,9.6-1.4,14.2c-0.8,2.1-1.5,4.2-2.2,6.3c-6.6,19.2-6.8,38.2-0.1,57.5
					c5.1,14.8,7.5,30.1,5.2,45.9c-1,7-1.1,14.1,0.9,21c4.4,15.6,11.6,29.7,23.9,40.6c11.5,10.2,23.1,20.1,34.7,30.2
					c4,3.5,7.8,7.3,12.1,11.5c0.1-1.4,0.1-2.2,0.2-2.9c0.7-10.3,4.3-19.7,10.2-28.1c3.5-4.9,8-8.5,13.6-10.7
					c9.5-3.6,22.3,1.1,24.3,12c0.3,1.6,0.5,4.9-1.5,4.9s-3.4-5-5-7.3c-5.2-7.2-11.3-8.5-18.9-4.1c-7.7,4.4-11.9,11.4-15.4,20.3
					c3.5-1.6,5.9-3.1,8.5-3.9c10.8-3.5,18.7,2.5,18.3,13.8c-0.2,5.2-4.7,7.9-9.3,5.4c-1.6-0.9-2.8-2.3-4.2-3.4
					c-3.5-2.5-7.2-2.2-9.7,0.9c-3.5,4.4-5.5,9.8-5,15.2c1,10.3,5,19.6,12.4,27c5.1,5.1,11.6,8.1,18.9,8.7c11.9,1,22.3-2.9,30.7-11.4
					c1.9-1.9,3.2-4.3,4.3-5.9c-7.1-7.2-13.6-13.8-20.7-21c-1.4,2.3-2.6,4.4-3.7,6.3c-5-2.9-6.4-6.2-6.1-10.4c0.4-8.3,8.1-14,16.7-12
					c3.1,0.7,6,2.3,8.8,3.8c7.3,4.1,14.5,4.2,21.8,0c2.4-1.4,5-2.7,7.6-3.6c6.3-2,12.7,0.3,16,5.5c3.7,5.9,2.1,12.7-3.9,15.8
					c-1.4-1.5-2.8-3.1-4.4-4.9c-6.8,6.9-13.4,13.5-20.2,20.4c1.8,4.8,6,8,10.3,11c15.8,10.9,38.7,8.8,49-9.5
					c2.8-5,4.6-10.7,6.4-16.2c2.1-6.5-0.5-12.4-3.7-17.8c-2.5-4.2-6.4-4.6-10.4-1.8c-1.5,1-2.7,2.5-4.2,3.4c-3.9,2.2-8.5,0.4-9-3.7
					c-1.1-9.8,3.8-18.9,16.3-16c1.9,0.5,3.8,1.3,5.6,2.1c1.1,0.5,2.2,1.1,4.5,2.2c-3.6-8.9-7.6-15.7-15-20c-7.9-4.7-14-3.4-19.4,4
					c-1.8,2.5-2.2,7.2-5.4,7.2s-0.1-7.5,0.7-8.9c1.6-2.7,3.7-5.1,6.4-6.8c5.4-3.4,12-3.3,17.7-0.7c9,4.1,14.6,11.4,18,20.3
					c2.4,6.5,3.9,13.3,5.7,19.5c5.5-4.8,11.3-10,17.2-15.2c9.8-8.7,19.8-17.2,29.5-26.1c12.5-11.4,19.8-25.9,23.6-42.1
					c1-4.4,0.9-9.2,0.8-13.8c-0.2-6.4-1.4-12.9-1.1-19.3c0.4-11.3,2.9-22.4,6.4-33.2c1.8-5.5,3.2-11.3,4-17
					c2.1-15.2-0.7-29.8-6.2-43.9c-2.2-5.7-2.7-11.1-1.6-17.1c3.2-18.1,5.7-36.3,2.9-54.8c-0.5-3-0.8-6-1-9
					c-2.4-31.2-10.7-60.7-25.8-88.2c-9.8-17.9-21.6-34.1-37.6-46.9c-2.6-2.1-5.8-3.9-8.9-4.8c-6-1.8-9.2-0.4-11.8,5.4
					c-2,4.6-3.5,9.5-4.3,14.4c-3.1,18.3-5.6,36.7-8.6,55c-2.2,13.5-3.6,27.3-10.6,39.5c-0.1,0.2,0.1,0.7,0.2,1.1
					c3.1,2,6.3,3.7,9.1,5.9c1,0.8,1.9,2.9,1.5,4c-0.7,2-2.6,1.2-4.1,0.5c-0.9-0.4-1.8-0.9-2.7-1.4c-5.7-3.7-12-5.6-18.6-6.7
					c-11-1.8-22-2.4-33.1-2.5c-10.4-0.1-20.5,1.1-30.6,2.7c-6.2,0.9-12.1,2.9-17.5,6.3c-1.5,1-3.2,1.8-4.9,2.2
					c-1.8,0.4-3.1-1.5-2.2-3.1c0.6-1.2,1.7-2.2,2.8-3C281.2,259.2,284,257.6,286.5,256.1L286.5,256.1z M302.2,578.3
					c6.7-1.9,10.3,1.4,13.6,5.5c2.9,3.6,6,7.1,9.4,10.2c6,5.3,8.7,5.3,14.7,0.2c3-2.6,5.8-5.6,8.3-8.7c3.7-4.7,7.2-9.3,14.5-7.6
					c-2.4-5.3-5-6.9-9.4-5.6c-2.5,0.8-4.8,2.1-7.1,3.3c-9.1,4.9-18.1,4.9-27.1,0c-1.9-1.1-3.9-2.2-5.9-3
					C308.3,570.8,305.5,572.2,302.2,578.3L302.2,578.3z M311.7,633.8c10.9,7.3,33.3,7.1,41.5-0.2c-6.8-3.3-13.7-6.6-20.5-9.9
					C326,627,319,630.3,311.7,633.8L311.7,633.8z M375.2,625c-4.3,0-8.5,0-12.8-0.9c-4-0.9-7.9-2.3-11.4-4.3
					c-5.8-3.3-10.7-8-14.9-13.2c-1.2,4.2-1.5,8.8,2.3,12.8c7.9,6,17.5,8.6,27.3,7.9c1.7-0.1,3.4-0.3,5-0.6c1-0.2,2.1-0.2,3.1-0.6
					C374.4,625.8,374.9,625.5,375.2,625L375.2,625z M329.4,606.6c-5.4,5.7-11.4,11.7-17.9,14.7c-3.3,1.5-6.9,2.2-10.4,2.5
					s-7.2,0.1-10.7,0.5c0.3,0.8,0.5,1.3,1.3,1.7c0.7,0.3,1.6,0.6,2.4,0.7c9.9,1.1,19.6,1,28.6-4.5
					C329.9,617.8,332.8,615.5,329.4,606.6L329.4,606.6z M265.5,563.5c7.6-1.8,12.4,1.1,17,5.2c1.2-5.5,0-9.2-3.3-10.8
					C275.7,556.2,270.5,558,265.5,563.5z M399.3,562.7c-4-4.6-9.4-6.5-12.9-4.9c-3.2,1.5-4.5,5.1-3.6,10.2
					C389.4,564.6,394.9,562.8,399.3,562.7L399.3,562.7z"/>
				<path class="st0" d="M193.5,303.6c0.1-1.4,0.2-2.9,0.3-4.3c0.6-7.7,1.1-15.4,2.1-23.1c2.1-15.6,5.7-31.1,10.8-46
					c4.2-12.2,9.5-24.1,15.8-35.4c3-5.4,7-10.4,11.3-14.8c5.8-6.1,12.6-4.4,15.5,3.6c1.3,3.5,1.8,7.4,2.2,11.2
					c2.6,20.2,7,40.1,12.4,59.7c2.4,8.9,0.7,15.7-5.9,22.5c-9.1,9.4-17.2,19.7-25.7,29.7c-5,5.8-9.8,11.8-14.8,17.6
					c-2.2,2.6-4.8,5.3-7.8,7c-2.1,1.2-4.7,1.9-7.1,1.2c-3.8-1-6-4.9-7.2-8.6C193.3,317.4,193.1,310.5,193.5,303.6L193.5,303.6z
					 M239.3,182.3c-3.9,3.8-7.2,7.6-10.1,12.2c-2.9,4.8-5.8,9.6-8.1,14.7c-0.4,0.8-0.7,1.5-1,2.3c-9.5,22.2-16.1,45.2-18.8,69.2
					c-0.8,7.5-1.6,15-1.8,22.5c-0.2,7.1-0.4,14.6,2.5,21.2c1.3,3.1,3.2,3.3,5.8,1.3c1.6-1.2,3-2.7,4.3-4.2c5-5.8,9.9-11.7,14.9-17.5
					c9.1-10.5,18.1-21.2,27.5-31.4c4.2-4.5,5.6-9.1,4.1-14.8c-3.1-11.1-5.8-22.4-8.1-33.6c-2.3-11.2-4.6-22.6-6-34
					C243.4,183.4,241.4,180.7,239.3,182.3L239.3,182.3z"/>
				<path class="st0" d="M472.2,319c-0.4,2.9-1.4,5.9-2.9,8.5c-3.2,5.9-9,7-14.2,2.8c-2.7-2.1-5.1-4.6-7.3-7.2
					c-6.1-7.2-11.9-14.7-18.1-21.9c-7.6-8.9-15.3-17.6-23.3-26.2c-5.2-5.6-6.1-11.8-4.4-19c3.6-14.9,7-29.8,10.2-44.8
					c1.6-7.7,2.4-15.5,3.8-23.2c0.5-2.5,1.3-5.1,2.6-7.3c3.3-5.2,8.4-6,12.7-1.7c4.4,4.4,8.6,9.2,11.7,14.5
					c17.5,31.1,26.6,64.6,29.1,100.1C472.4,296.7,472.9,313.6,472.2,319L472.2,319z M426.3,182.3c-3.7,1.7-3.9,4.6-4.3,7.4
					c-1.3,7.6-2.2,15.2-3.8,22.6c-3.2,15-6.6,29.9-10.3,44.8c-1.4,5.5-0.9,10.1,3,14.5c10.3,11.6,20.4,23.4,30.6,35.1
					c5,5.8,9.9,11.7,15.2,17.2c4.3,4.6,7,3.9,8.8-2.2c1.1-4,2-8.4,1.6-12.5c-1.2-15-2.1-30.2-4.9-45c-4.4-23.6-11.4-46.6-23.6-67.6
					C435.3,191,431.4,186,426.3,182.3L426.3,182.3z"/>
				<g>
					<g>
						<path class="st0" d="M187.3,388.5c5.7,4.9,10.6,9.1,15.4,13.3c9.2,7.9,19.9,12.9,31.4,16.5c13.6,4.2,26.7,9.2,38.1,17.9
							c17.5,13.5,28.9,30.7,31.9,52.9c1.3,9.1,0.1,18.1-3,26.8c-0.7,1.9-2.1,3.6-3.1,5.4c-0.4-0.1-0.8-0.2-1.2-0.3
							c-0.3-1.2-0.6-2.5-0.8-3.7c-0.7-6.4-2.9-12-6.9-17.1c-3.8-4.9-8.7-7.1-14.6-7.3c-3.6-0.2-7.3-0.1-10.9,0.4
							c-9.8,1.3-19.3,0.9-28.6-2.7c-1.2-0.5-2.7-0.5-4.1-0.5c-21.8,0.6-37.1-13.9-36-34.7c0.5-10.6,0.3-20.9-3-31.1
							c-1.5-4.6-3.4-9-5-13.6c-1.9-5.4-2.2-11-1.4-16.7C186,392.4,186.6,390.9,187.3,388.5L187.3,388.5z M204.6,436.6
							c0.1,0.6,0,1.4,0.3,2c3.4,8.4,6.4,17,10.5,25.1c8.5,17,26.1,26.6,46.2,23.6c4.4-0.6,8.9-0.9,13.2-0.7c7.5,0.4,14.2,2.7,19,9.1
							c0.5,0.7,1.4,1.2,2.1,1.6c1.2-8.8-4.9-20.3-10-27.1c-11.3-14.8-26.2-23.6-44.3-27.1c-12-2.4-24.1-4.6-36.1-6.9
							C205.3,436.1,205.1,436.3,204.6,436.6L204.6,436.6z M284.2,458c0,0,0.1,0,0.1-0.1c0.1-0.1,0.2-0.2,0.3-0.2
							c0,0,0.1-0.1,0.1-0.1c0,0,0-0.1,0-0.1c-0.7-1.8-2-2.9-3.3-4.3s-2.7-2.8-4.1-4.2c-2.7-2.8-5.5-5.5-8.5-8
							c-10.6-8.8-23.3-13.4-36.3-17.4c-7.9-2.4-15.7-5.5-22.9-9.8c-3.6-2.1-6.9-4.5-10.1-7.2c-3-2.6-5.5-5.8-9.2-7.5
							c0.7,0.2,1.5,5.5,1.8,6.5c0.7,2.5,1.4,4.9,2,7.4c2.7,10.3,9.1,16.9,19.7,19c6.9,1.4,13.9,2.6,20.8,3.6c7.2,1,14.2,2.5,21.1,5
							c6.8,2.5,13.2,5.7,19,9.9c1.6,1.1,3.2,2.4,4.7,3.6s3,2.8,4.8,3.8C284.1,458,284.2,458,284.2,458L284.2,458z M201.6,450.4
							c-3.4,17.1,5.1,30.2,22.4,33.5C211.9,474.8,207.4,462.3,201.6,450.4z"/>
						<path class="st0" d="M310.8,442.8c-0.1,0-3.5-8.9-3.9-9.7c-1.5-3.2-3.1-6.3-5-9.2c-3.8-6-8.5-11.3-14.3-15.4
							c-1.1,1.6-2.3,3.2-3.4,4.9c-3.9,5.8-8.9,7.2-15.1,4c-5.3-2.8-9.2-7.6-10.4-13.5c-0.4-2.1-0.5-4.4-0.3-6.5
							c0.1-1.1,0.3-2.2,0.5-3.3c0.1-0.6,0.9-2.2,0.6-2.8c-0.3-0.6-1.3-0.9-1.8-1.2c-0.8-0.5-1.6-1.1-2.3-1.8
							c-4.4-4.1-9-8.1-12.8-12.7c-5.7-7.1-7.7-15.4-5.4-24.5c0.6-2.2,0.9-4.5,1.2-6.7c0.2-1.1,0.4-2.2,0.5-3.3
							c0.1-1.2,0.1-2.4,0.6-3.5c0.4-1,1.1-1.8,1.9-2.5c0.3-0.2,0.6-0.5,0.9-0.6c0.6-0.2,1.2,0,1.7,0.4c0.8,0.6,1.6,1.6,2,2.5
							c0.9,1.6,1.3,3.5,2.1,5.2c0.7,1.5,1.4,2.9,2.3,4.3c1.7,2.6,3.7,5,6,7c4.1,3.6,9,6.1,14.2,7.7c7.8,2.4,14.1,6.9,19.3,12.9
							c13.7,16,22,39.8,22.7,55.6C313.2,434.1,311.3,442.7,310.8,442.8L310.8,442.8z M304.9,420.2c-2.5-17.9-10.3-32.8-22.4-45.5
							c-3.7-3.8-8.2-6.5-13.4-7.9c-8.9-2.4-15.9-7.6-21.8-14.5c-0.9-1-1.4-2.3-2.6-4.2c-3.5,9-2.4,15.8,1.7,22.3
							c4.9,7.7,11.6,13.3,19.8,17.2c1.5,0.7,3.1,1.1,4.3,2.1c1.1,0.9,1.6,2.4,2.4,3.6c-1.1,0.7-2.1,1.7-3.3,2
							c-1.3,0.3-2.6,0.1-3.9,0.1c-0.1,0-0.1,0-0.2,0c-0.1,0-0.1,0.1-0.1,0.2c-2.5,4.6-0.4,8.9,2.6,12.6c4.8,6,7.9,5.8,12.3-0.6
							c3.2-4.7,7.8-6,12.5-2.8c3.1,2.1,5.6,5.1,7.9,8.1C302.4,415.2,303.5,417.8,304.9,420.2L304.9,420.2z"/>
						<path class="st0" d="M215.3,499.2c2.1,1.5,3.4,2.5,4.9,3.4c5.6,3.5,11.5,5.5,18.3,3.5c4.8-1.4,9.7-2.6,14.7-3.2
							c7.6-1,14.5,3.3,16.8,9.9c2.1,5.9,0.2,10.7-5.7,12.5c-3.5,1.1-7.7,1.8-11.2,0.8c-11.8-3.1-22.7-8.1-31.7-16.6
							C218.6,506.9,216.4,504,215.3,499.2L215.3,499.2z M230.8,511.8c7.8,5.5,15.8,8.7,24.1,11c3,0.8,8,0.1,10.2-2.2
							c1.3-1.4,1.8-3.5,1.5-5.4s-1.4-3.6-2.8-5c-3.7-3.7-8.7-4.1-13.6-3c-3.4,0.7-6.8,1.5-10.2,2.3
							C238.6,509.9,231.9,512.5,230.8,511.8z"/>
						<path class="st0" d="M320.5,373.8c-0.1-1.7-0.1-3.4-0.2-5.1c-0.3-4.1-1.1-8.2-2.1-12.2c-0.1-0.3-0.2-0.7-0.2-1
							c-1-4-2.3-7.9-3.7-11.7c-0.3-0.9-0.6-1.7-1-2.6c-2.6-6.7-6.7-12.8-10.8-18.8c-2.9-4.3-4.9-4.5-9.9-2.6
							c-3.8,1.4-7.3,1.1-10.2-1.4c-5.9-4.9-10.1-11.2-10.9-19c-0.6-6.4-0.1-12.9,0.1-19.3c0-0.9,1.1-2.3,2-2.5s2.5,0.3,3.1,1.1
							c1.3,2,2.2,4.3,3.3,6.5c1.2,2.4,2.5,4.8,4.1,6.9c0.8,1,1.8,2.3,3,2.8c1.4,0.5,3.3-0.7,4.5-1.4c5.3-3.3,10.1-2.1,14.3,2
							c2.4,2.4,4.7,5.1,6.3,8c3.7,7,6.9,14.4,9.1,22s3.7,15.2,4.2,23c0.3,3.9,0.3,7.9,0.1,11.8c-0.2,4-0.5,8-1.3,12
							c-0.5,2.7-1.4,5.4-2.4,8C321,378.2,320.7,376,320.5,373.8L320.5,373.8z M303.5,301.6c-3.5-4.5-5.2-4.6-10.3-2.2
							c-5.7,2.7-7.8,2.4-12.4-2c-0.8-0.8-1.7-1.5-2.8-2.5c-1,6.6,3.4,16.7,8.3,19.1c1.2,0.6,3.2,0.5,4.5,0c7.2-3,12.6-0.2,16.9,5.4
							c2.6,3.3,4.9,6.8,7.3,10.3C312.9,319.6,309.9,309.8,303.5,301.6L303.5,301.6z"/>
						<circle class="st0" cx="224.1" cy="383.2" r="4.9"/>
						<path class="st0" d="M332.8,442.1c-7,0-12.7,5.7-12.7,12.7s5.7,12.7,12.7,12.7s12.7-5.7,12.7-12.7S339.8,442.1,332.8,442.1z
							 M332.8,461.9c-3.9,0-7.1-3.2-7.1-7.1s3.2-7.1,7.1-7.1s7.1,3.2,7.1,7.1S336.7,461.9,332.8,461.9z"/>
					</g>
					<g>
						<path class="st0" d="M479.8,393.9c0.9,5.7,0.5,11.3-1.4,16.7c-1.6,4.6-3.5,9-5,13.6c-3.3,10.1-3.5,20.5-3,31.1
							c1,20.8-14.3,35.3-36,34.7c-1.4,0-2.9,0-4.1,0.5c-9.3,3.6-18.8,4-28.6,2.7c-3.6-0.5-7.2-0.6-10.9-0.4
							c-5.9,0.3-10.7,2.5-14.6,7.3c-4,5.1-6.2,10.8-6.9,17.1c-0.1,1.2-0.5,2.5-0.8,3.7c-0.4,0.1-0.8,0.2-1.2,0.3
							c-1.1-1.8-2.4-3.5-3.1-5.4c-3.1-8.7-4.2-17.6-3-26.8c3.1-22.2,14.4-39.4,31.9-52.9c11.4-8.8,24.5-13.8,38.1-17.9
							c11.5-3.5,22.2-8.5,31.4-16.5c4.8-4.2,9.7-8.3,15.4-13.3C479,390.9,479.6,392.3,479.8,393.9L479.8,393.9z M460.1,436.1
							c-12,2.3-24.1,4.6-36.1,6.9c-18.1,3.5-33.1,12.4-44.3,27.1c-5.1,6.7-11.2,18.2-10,27.1c0.7-0.3,1.6-0.9,2.1-1.6
							c4.7-6.4,11.5-8.7,19-9.1c4.4-0.2,8.9,0.1,13.2,0.7c20.2,3,37.7-6.6,46.2-23.6c4-8.1,7-16.7,10.5-25.1c0.3-0.7,0.2-1.4,0.3-2
							C460.5,436.3,460.3,436.1,460.1,436.1L460.1,436.1z M381.4,458c1.8-1.1,3.2-2.5,4.8-3.8c1.5-1.3,3.1-2.5,4.7-3.6
							c5.9-4.1,12.3-7.4,19-9.9c6.8-2.5,13.9-4,21-5c7-0.9,13.9-2.2,20.8-3.6c10.6-2.1,17-8.7,19.7-19c0.6-2.5,1.3-4.9,2-7.4
							c0.3-1,1.1-6.3,1.8-6.5c-3.7,1.7-6.2,4.9-9.2,7.5c-3.2,2.7-6.5,5.1-10.1,7.2c-7.1,4.3-14.9,7.4-22.9,9.8
							c-13,3.9-25.7,8.6-36.3,17.4c-3,2.5-5.8,5.2-8.5,8c-1.4,1.4-2.7,2.8-4.1,4.2s-2.6,2.5-3.3,4.3c0,0,0,0.1,0,0.1s0,0.1,0.1,0.1
							c0.1,0.1,0.2,0.2,0.3,0.2c0,0,0.1,0.1,0.1,0.1C381.3,458,381.4,458,381.4,458L381.4,458z M441.5,483.9
							c17.4-3.3,25.8-16.4,22.4-33.5C458.2,462.3,453.6,474.8,441.5,483.9z"/>
						<path class="st0" d="M352.7,429.9c0.8-15.8,9-39.6,22.7-55.6c5.2-6.1,11.5-10.5,19.3-12.9c5.2-1.6,10.1-4.1,14.2-7.7
							c2.3-2,4.4-4.4,6-7c0.9-1.4,1.6-2.8,2.3-4.3c0.8-1.7,1.2-3.5,2-5.2c0.5-0.9,1.2-1.9,2-2.5c0.5-0.4,1.1-0.5,1.7-0.4
							c0.4,0.1,0.6,0.3,0.9,0.6c0.8,0.7,1.5,1.5,1.9,2.5c0.5,1.1,0.5,2.4,0.6,3.5c0.1,1.1,0.4,2.2,0.5,3.3c0.3,2.2,0.7,4.5,1.2,6.7
							c2.3,9.1,0.4,17.4-5.4,24.5c-3.8,4.6-8.4,8.6-12.8,12.7c-0.7,0.7-1.5,1.2-2.3,1.8c-0.5,0.4-1.5,0.6-1.8,1.2
							c-0.3,0.6,0.4,2.2,0.6,2.8c0.2,1.1,0.4,2.2,0.5,3.3c0.2,2.2,0.1,4.4-0.3,6.5c-1.2,5.9-5,10.8-10.4,13.5
							c-6.2,3.2-11.2,1.9-15.1-4c-1.1-1.6-2.2-3.2-3.4-4.9c-5.7,4.1-10.5,9.5-14.3,15.4c-1.9,3-3.5,6-5,9.2
							c-0.4,0.8-3.8,9.7-3.9,9.7C354.3,442.6,352.3,434,352.7,429.9L352.7,429.9z M364.9,413c2.4-2.9,4.9-6,7.9-8.1
							c4.7-3.2,9.2-1.9,12.5,2.8c4.4,6.4,7.5,6.6,12.3,0.6c3-3.8,5-8,2.6-12.6c0-0.1-0.1-0.1-0.1-0.2c-0.1,0-0.1,0-0.2,0
							c-1.3,0.1-2.6,0.3-3.9-0.1c-1.2-0.3-2.2-1.3-3.3-2c0.8-1.2,1.4-2.7,2.4-3.6c1.2-1,2.9-1.4,4.3-2.1c8.2-3.9,14.9-9.6,19.8-17.2
							c4.1-6.5,5.2-13.4,1.7-22.3c-1.1,1.9-1.7,3.2-2.6,4.2c-5.9,6.9-12.9,12.1-21.8,14.5c-5.2,1.4-9.7,4.1-13.4,7.9
							c-12.2,12.7-20,27.6-22.4,45.5C362,417.8,363.1,415.2,364.9,413L364.9,413z"/>
						<path class="st0" d="M444.1,509.5c-9,8.5-20,13.5-31.7,16.6c-3.4,0.9-7.6,0.2-11.2-0.8c-5.9-1.8-7.8-6.7-5.7-12.5
							c2.3-6.6,9.2-10.9,16.9-9.9c5,0.6,9.9,1.8,14.7,3.2c6.8,2,12.7,0,18.3-3.5c1.4-0.9,2.8-1.9,4.9-3.4
							C449.1,504,446.9,506.9,444.1,509.5L444.1,509.5z M425.5,509.6c-3.4-0.8-6.8-1.6-10.2-2.3c-4.9-1-9.9-0.7-13.5,3
							c-1.4,1.4-2.4,3.1-2.8,5s0.1,4,1.5,5.4c2.2,2.3,7.2,3,10.1,2.2c8.3-2.4,16.3-5.5,24.1-11C433.7,512.5,426.9,509.9,425.5,509.6
							L425.5,509.6z"/>
						<path class="st0" d="M343.7,380.3c-1.1-2.6-1.9-5.3-2.4-8c-0.8-3.9-1.1-8-1.3-12c-0.2-3.9-0.2-7.9,0.1-11.8
							c0.5-7.8,1.9-15.5,4.2-23s5.4-15,9.1-22c1.6-3,3.9-5.7,6.3-8c4.1-4,9-5.2,14.3-2c1.2,0.7,3.1,2,4.5,1.4c1.2-0.5,2.2-1.8,3-2.8
							c1.6-2.1,2.9-4.5,4.1-6.9c1.1-2.2,1.9-4.5,3.3-6.5c0.5-0.8,2.2-1.3,3.1-1.1s2,1.6,2,2.5c0.2,6.4,0.8,12.9,0.1,19.3
							c-0.8,7.7-4.9,14-10.9,19c-3,2.5-6.5,2.8-10.2,1.4c-5-1.9-6.9-1.7-9.9,2.6c-4,6-8.2,12.1-10.8,18.8c-0.3,0.9-0.7,1.7-1,2.6
							c-1.4,3.9-2.7,7.8-3.7,11.7c-0.1,0.3-0.2,0.7-0.2,1c-1,4-1.8,8.1-2.1,12.2c-0.1,1.7-0.1,3.4-0.2,5.1
							C344.9,376,344.6,378.2,343.7,380.3L343.7,380.3z M350.5,329.7c2.4-3.4,4.7-7,7.3-10.3c4.4-5.6,9.7-8.4,16.9-5.4
							c1.3,0.5,3.3,0.6,4.5,0c5-2.4,9.3-12.5,8.3-19.1c-1.1,0.9-1.9,1.7-2.8,2.5c-4.7,4.4-6.7,4.7-12.4,2c-5.1-2.4-6.8-2.3-10.3,2.2
							C355.6,309.8,352.6,319.6,350.5,329.7L350.5,329.7z"/>
						<circle class="st0" cx="441.5" cy="383.2" r="4.9"/>
					</g>
				</g>
			</g>
			<g>
				<path class="st0" d="M86.4,81.6L59.2,98.9c-1.7,1.1-4,0.6-5.1-1.2c-1.1-1.7-0.5-4,1.1-5.1l60.5-38.5c1.7-1.1,4-0.5,5.1,1.1
					c1.2,1.8,0.6,4.1-1,5.2L92.5,77.7l51.4,80.7c1.1,1.7,0.6,4-1.1,5.1s-4,0.6-5.1-1.1L86.4,81.6L86.4,81.6z"/>
				<path class="st0" d="M164.1,35.8c-0.6-1.9,0.4-4,2.3-4.6l0.3-0.1L218.5,14c2-0.7,4,0.4,4.6,2.3c0.7,2-0.3,4.1-2.3,4.8l-48.5,16
					l13.2,40.1l42.4-14c1.9-0.6,4,0.5,4.7,2.5c0.6,1.9-0.4,4-2.3,4.6l-42.4,14l13.2,40l48.5-16c2-0.7,4,0.4,4.7,2.5
					c0.6,1.9-0.3,3.9-2.3,4.6l-51.7,17l-0.4,0.1l-0.3,0.1c-1.8,0.4-3.7-0.5-4.3-2.4L164.1,35.8L164.1,35.8z"/>
				<path class="st0" d="M280,17.7l4,87.3c0.1,2-1.5,3.7-3.5,3.8c-2,0.1-3.7-1.5-3.8-3.5l-4.5-97.8c-0.5-1.5-0.1-3.1,1.2-4.2
					c1.6-1.1,4.1-1,5.2,0.7l68.7,86.6l-4-86.8c-0.1-2,1.5-3.7,3.5-3.8c2.1-0.1,3.9,1.5,4,3.5l4.5,98.3c0.1,2-1.5,3.7-3.6,3.8
					c-1.2,0.1-2.2-0.4-3-1.2c-0.2-0.2-0.5-0.3-0.6-0.6L280,17.7L280,17.7z"/>
				<path class="st0" d="M411.8,8.8c0.5-2.1,2.6-3.3,4.5-2.8c2.1,0.5,3.3,2.6,2.8,4.6l-15.2,59.9l78.4-46.6c1.8-1,4.2-0.4,5,1.3
					c1.1,1.7,0.5,4.1-1.3,5.2l-49.7,29.5l27.4,61.8c0.8,1.9,0,3.9-1.9,5c-0.9,0.4-1.7,0.4-2.5,0.1c-1-0.3-1.9-0.8-2.3-2l-27.1-61
					l-28.6,17l-6.6,25.9c-0.5,1.9-2.5,3.1-4.6,2.6c-1.9-0.5-3.1-2.5-2.6-4.4L411.8,8.8L411.8,8.8z"/>
				<path class="st0" d="M573.8,63.9c24.4,14.7,31.1,47.1,15.8,72.8c-15.6,25.5-47.3,34.7-71.7,20c-24.7-14.9-31.5-47.3-16.2-73
					C517.2,58.1,549.1,49,573.8,63.9L573.8,63.9z M521.8,150.2c20.1,12.1,47.7,4.7,61.3-17.5c13.5-22.7,6.9-50.2-13.2-62.3
					c-20.8-12.5-48.2-5.5-61.8,17.1C494.6,109.9,501,137.7,521.8,150.2L521.8,150.2z"/>
			</g>
			<g>
				<path class="st0" d="M141.1,589.8l-21.6-23.9c-1.3-1.5-1.2-3.8,0.4-5.3c1.5-1.3,3.8-1.2,5.2,0.3l48.1,53.2
					c1.3,1.5,1.2,3.8-0.3,5.2c-1.6,1.4-3.9,1.3-5.3-0.2l-21.6-23.9l-71,64.1c-1.5,1.3-3.8,1.2-5.2-0.3c-1.3-1.5-1.2-3.8,0.3-5.2
					L141.1,589.8L141.1,589.8z"/>
				<path class="st0" d="M186.8,715.9l-41.6-25.2l-21.1,16.6c-1.3,1-3,1.1-4.3,0.3c-0.3-0.2-0.7-0.6-1.1-0.8
					c-1.2-1.6-0.9-4.1,0.7-5.3l83-65.5c1.2-0.9,3-0.8,4.3-0.1c1.4,0.9,2.3,2.4,1.9,3.8l-19.6,103.9c-0.3,2-2.3,3.4-4.2,3.2
					c-0.5-0.3-0.9-0.3-1.2-0.6c-1.2-0.7-2-2.3-1.7-3.9L186.8,715.9L186.8,715.9z M151.4,685.7l36.9,22.4l11.3-60.2L151.4,685.7z"/>
				<path class="st0" d="M264.8,668.8l-31.1-8.1c-1.9-0.5-3.1-2.5-2.6-4.6c0.5-1.9,2.6-3.1,4.5-2.6l69.4,18.1
					c1.9,0.5,3.1,2.5,2.6,4.5c-0.5,2.1-2.6,3.3-4.5,2.8l-31.1-8.1l-24.2,92.5c-0.5,1.9-2.6,3.1-4.5,2.6s-3.1-2.5-2.6-4.5
					L264.8,668.8L264.8,668.8z"/>
				<path class="st0" d="M351.7,678.4l-32.1,2.7c-2,0.2-3.8-1.4-4-3.5c-0.2-2,1.4-3.8,3.3-4l71.4-6.1c2-0.2,3.8,1.4,4,3.3
					c0.2,2.1-1.4,3.9-3.3,4.1l-32.1,2.7l8.1,95.3c0.2,2-1.4,3.8-3.3,4c-2,0.2-3.8-1.4-4-3.3L351.7,678.4L351.7,678.4z"/>
				<path class="st0" d="M441.9,645.9c25.7-12.4,56.4-0.4,69.6,26.4c12.9,27,3.3,58.6-22.4,71c-25.9,12.6-56.8,0.6-70-26.2
					C406.2,690.2,415.9,658.5,441.9,645.9z M485.8,736.6c21.1-10.2,30-37.4,18.8-61c-11.6-23.7-38.3-33.1-59.4-22.9
					c-21.8,10.6-30.9,37.3-19.4,61.1C437.2,737.3,464,747.2,485.8,736.6L485.8,736.6z"/>
				<path class="st0" d="M527.8,578.8c17.9-22.2,50.9-24.4,74.2-5.8c23.2,18.9,28,51.6,10.1,73.8c-18.1,22.4-51.2,24.8-74.5,6.1
					C514.4,634.1,509.7,601.3,527.8,578.8L527.8,578.8z M606.3,642.1c14.8-18.3,11.2-46.7-9-63.1c-20.6-16.5-48.8-13.7-63.5,4.6
					c-15.2,18.9-12,47,8.5,63.5C562.6,663.5,591,661,606.3,642.1L606.3,642.1z"/>
			</g>
		</g>
		<g>
			<g class="st1">
				<path class="st0" d="M5.7,408.8l5.4-30.9c0.3-1.6,1.8-2.9,3.4-2.9h0.1h0.1h16.9c1.6,0,2.7,1.3,2.4,2.9c-0.3,1.6-1.8,2.9-3.4,2.9
					H16.4l-1.7,9.6h12.2c1.6,0,2.7,1.3,2.4,2.9c-0.3,1.6-1.8,2.9-3.4,2.9H13.7l-1.7,9.6h14.2c1.6,0,2.7,1.3,2.4,2.9
					c-0.3,1.6-1.8,2.9-3.4,2.9h-17c0,0,0,0-0.1,0C6.5,411.7,5.4,410.4,5.7,408.8z"/>
			</g>
			<g class="st1">
				<path class="st0" d="M35.6,402.8c1.1-1.1,2.8-1.3,3.8-0.4c1.9,1.8,5.4,4,9.1,3.9c2.6,0,5-0.8,6.6-1.9c1.7-1.2,2.6-2.4,2.9-3.7
					c0.1-0.7,0.1-1.2-0.2-1.6c-0.3-0.5-0.6-1-1.3-1.5c-1.3-1-3.7-1.9-6.6-2.5h-0.1h-0.1c-2.3-0.5-4.4-1.1-6.2-2
					c-1.8-0.9-3.2-2.1-4.1-4c-0.5-1.2-0.7-2.7-0.4-4.1c0.6-3.1,2.8-5.8,5.4-7.4c2.7-1.7,5.9-2.7,9.3-2.7c4.9,0,8.1,2.4,10.4,4.1
					c1.1,0.8,1.1,2.4,0.1,3.6c-1,1.2-2.7,1.6-3.7,0.7c-2.3-1.7-4.6-3.2-7.6-3.2c-2.4-0.1-4.5,0.7-6.1,1.7c-1.5,1-2.3,2.1-2.5,3.2
					c-0.1,0.6-0.1,1,0.2,1.4c0.2,0.4,0.5,0.8,1.1,1.3c1.2,0.9,3.3,1.7,6,2.2h0.1c2.5,0.5,4.8,1.2,6.7,2.1c1.8,1,3.5,2.3,4.3,4.2
					c0.6,1.3,0.7,2.8,0.4,4.4c-0.6,3.2-2.9,6.1-5.7,7.9c-2.9,1.8-6.3,2.9-9.9,2.9c-5.5-0.1-9.7-2.8-12.2-5.1
					C34.4,405.6,34.5,404,35.6,402.8z"/>
			</g>
			<g class="st1">
				<path class="st0" d="M71.4,375h22.2c1.6,0,2.7,1.3,2.4,2.9c-0.3,1.6-1.8,2.9-3.4,2.9h-8.3l-4.9,27.9c-0.3,1.6-1.8,2.9-3.4,2.9
					c-1.6,0-2.7-1.3-2.4-2.9l4.9-27.9h-8.3c-1.6,0-2.7-1.3-2.4-2.9C68.3,376.3,69.8,375,71.4,375z"/>
			</g>
			<g class="st1">
				<path class="st0" d="M596.5,399.4c-0.3,1.5-1.8,2.7-3.4,2.7h-18.5c-0.1,0-0.1,0-0.1,0c0,0-0.1,0-0.1,0c-0.8,0-1.5-0.3-1.9-0.9
					c-0.9-1.1-0.5-2.9,0.9-3.9l18-13.3c1.7-1.3,2.8-3,3.1-4.8c0.3-1.5,0-3.1-0.9-4.3c-1.1-1.4-2.8-2.1-4.6-2.1
					c-1.6,0-3.4,0.5-4.9,1.6l-1.9,1.4c-1.4,1-3.2,0.9-4.1-0.2c-0.8-1.1-0.4-2.8,0.9-3.9l1.9-1.4c2.8-2,6-3.1,9-3.1
					c3.4,0,6.6,1.3,8.6,3.9c1.8,2.3,2.3,5.2,1.8,8c-0.6,3.2-2.6,6.5-5.8,8.9l-11.5,8.5h11.1C595.7,396.6,596.8,397.8,596.5,399.4z"
					/>
			</g>
			<g class="st1">
				<path class="st0" d="M629.6,372.7c1.7,3.2,2.1,7.4,1.3,11.9s-2.9,8.7-5.7,11.9c-2.8,3.2-6.7,5.5-10.7,5.5s-7.1-2.3-8.7-5.5
					c-1.7-3.2-2.1-7.4-1.3-11.9c0.8-4.5,2.9-8.7,5.7-11.9s6.7-5.5,10.7-5.5C625,367.2,628,369.5,629.6,372.7z M625.1,384.6
					c0.6-3.5,0.2-6.7-0.9-8.9c-1.1-2.1-2.7-3.1-4.3-3c-1.6,0-3.6,0.9-5.5,3c-1.9,2.1-3.5,5.3-4.1,8.9c-0.7,3.5-0.2,6.7,0.9,8.8
					c1.1,2.1,2.7,3.1,4.3,3.1c1.6,0,3.6-0.9,5.5-3.1C622.8,391.4,624.5,388.2,625.1,384.6z"/>
			</g>
			<g class="st1">
				<path class="st0" d="M664.1,399.4c-0.3,1.5-1.8,2.7-3.4,2.7h-18.5c-0.1,0-0.1,0-0.1,0c0,0-0.1,0-0.1,0c-0.8,0-1.5-0.3-1.9-0.9
					c-0.9-1.1-0.5-2.9,0.9-3.9l18-13.3c1.7-1.3,2.8-3,3.1-4.8c0.3-1.5,0-3.1-0.9-4.3c-1.1-1.4-2.8-2.1-4.6-2.1
					c-1.6,0-3.4,0.5-4.9,1.6l-1.9,1.4c-1.4,1-3.2,0.9-4.1-0.2c-0.8-1.1-0.4-2.8,0.9-3.9l1.9-1.4c2.8-2,6-3.1,9-3.1
					c3.4,0,6.6,1.3,8.6,3.9c1.8,2.3,2.3,5.2,1.8,8c-0.6,3.2-2.6,6.5-5.8,8.9l-11.5,8.5h11.1C663.3,396.6,664.4,397.8,664.1,399.4z"
					/>
				<path class="st0" d="M694.1,380.9c2.1,2.4,2.8,5.6,2.2,8.7c-0.6,3.1-2.5,6.3-5.4,8.8c-3,2.4-6.5,3.6-9.9,3.6
					c-3.3,0-6.4-1.2-8.5-3.6c-0.9-1.1-0.6-2.9,0.8-4s3.2-1.1,4.2,0c1.1,1.3,2.8,1.9,4.6,1.9s3.7-0.6,5.4-1.9c1.6-1.3,2.6-3,2.9-4.8
					c0.3-1.7-0.1-3.4-1.2-4.7c-1.2-1.3-2.8-1.9-4.6-2c-0.9,0-1.6-0.3-2-0.9c0,0,0,0-0.1-0.1c-0.9-1.1-0.6-2.8,0.7-4l6.3-5.2H681
					c-1.7,0-2.8-1.2-2.5-2.8c0.3-1.5,1.8-2.8,3.5-2.8h15.5c1.6,0,2.7,1.2,2.4,2.8c-0.1,0.5-0.3,0.9-0.6,1.3
					c-0.2,0.2-0.4,0.5-0.7,0.7l-7.8,6.5C692.1,379,693.2,379.8,694.1,380.9z"/>
			</g>
		</g>
	</g>
	<g class="st1">
		<path class="st2" d="M330.7,184.2h-13.3c2.4,7.5,7.2,12.6,15.2,14.6c-0.5,0.5-1.3,1.6-1.7,2.3c-7.6-2.2-12.3-7-15.1-14.2
			c-1.4,5.4-5.4,10.7-15.5,14.2c-0.3-0.6-1-1.6-1.5-2.1c10.7-3.8,14-9.3,14.9-14.8h-13.1v-2.5H314c0.1-0.8,0.1-1.5,0.1-2.2v-6.7
			h-14.6v-2.5h32.2v2.5h-15v6.7c0,0.7,0,1.5-0.1,2.2h14.1V184.2z"/>
		<path class="st2" d="M337.1,167.8c1.6,1.4,2.9,2.9,3.9,4.4c1.2-1.6,2.3-3.1,3.1-4.6l2.5,1.3c-0.1,0.2-0.4,0.3-0.7,0.3
			c-1,1.7-2.3,3.4-3.8,5.1c2,4.1,2.4,8.4,2.4,12.9c0,5.4-0.4,10.5-1.8,12.5c-0.8,1-1.8,1.3-4.7,1.3c-0.5,0-0.9,0-1.4,0
			c0-0.8-0.3-1.7-0.7-2.4c0.8,0,1.6,0.1,2.2,0.1c2,0,2.4-0.2,2.8-0.7c0.9-1.3,1.3-5.9,1.3-10.8c0-0.7,0-1.4,0-2.1
			c-1.7,2.6-3.9,5.1-6,6.7c-0.4-0.6-1-1.4-1.6-1.9c2.6-1.8,5.6-5.2,7.3-8.5c-0.3-1.9-0.7-3.7-1.4-5.4c-1.3,1.3-2.7,2.5-4.1,3.6
			c-0.4-0.5-1.1-1.2-1.6-1.5c1.6-1.2,3.2-2.6,4.6-4.2c-1-1.7-2.3-3.3-4-4.9L337.1,167.8z M350.1,170.9c5.3-0.9,11.1-2.2,14.3-3.5
			l2.4,1.8c-0.1,0.1-0.2,0.1-0.4,0.1c-0.1,0-0.2,0-0.3,0c-0.7,0.3-1.6,0.5-2.4,0.8c0.5,12.2,1.8,23.7,5.4,29.2
			c-0.6,0.4-1.4,1.2-1.8,1.8c-3.8-6.2-5-17.6-5.6-30.5c-3.3,0.8-7.3,1.6-11,2.1v9.5c0,5.6-0.6,13.3-4.7,18.8
			c-0.3-0.5-1.2-1.3-1.7-1.6c3.8-5.1,4.2-12,4.2-17.4v-11.9L350.1,170.9z M360.9,194.9c-0.6-1.7-1.2-3.5-1.9-5l1.7-0.5
			c1.3,3.1,2.7,7.2,3.3,9.9l-1.8,0.5c-0.2-0.9-0.4-1.9-0.8-3c-4.2,0.5-8.4,0.9-11.2,1.2c-0.1,0.3-0.3,0.5-0.5,0.5l-0.8-2.7
			c1.7-0.1,3.8-0.3,6.1-0.4v-22.8l2.8,0.2c0,0.3-0.2,0.4-0.7,0.5v22L360.9,194.9z"/>
	</g>
</g>
</svg>
