<?xml version="1.0" encoding="utf-8"?>
<!-- Generator: Adobe Illustrator 27.8.0, SVG Export Plug-In . SVG Version: 6.00 Build 0)  -->
<svg version="1.1" id="Layer_2_00000091733526433146992140000014489525935601489311_"
	 xmlns="http://www.w3.org/2000/svg" xmlns:xlink="http://www.w3.org/1999/xlink" x="0px" y="0px" viewBox="0 0 294.9 2994.9"
	 style="enable-background:new 0 0 294.9 2994.9;" xml:space="preserve">
<style type="text/css">
	.st0{fill:#F8F8F9;}
	.st1{enable-background:new    ;}
	.st2{fill:#EC008C;}
</style>
<g id="Layer_1-2">
	<g>
		<path class="st0" d="M132.8,13h-56c-3.4,0-6.4-2.9-6.4-6.6c0-3.5,2.9-6.4,6.4-6.4h124.8c3.4,0,6.4,2.9,6.4,6.4
			c0,3.7-2.9,6.6-6.4,6.6h-56v166.5c0,3.4-2.9,6.4-6.4,6.4s-6.4-2.9-6.4-6.4L132.8,13L132.8,13z"/>
		<path class="st0" d="M92,271.9c0-3.5,2.9-6.4,6.4-6.4H194c3.7,0,6.4,2.9,6.4,6.4c0,3.7-2.7,6.6-6.4,6.6h-89v73.6h77.8
			c3.4,0,6.4,2.9,6.4,6.6c0,3.5-2.9,6.4-6.4,6.4h-77.8v73.3h89c3.7,0,6.4,2.9,6.4,6.6c0,3.5-2.7,6.4-6.4,6.4H97.9
			c-3.2-0.3-5.8-2.9-5.8-6.4L92,271.9L92,271.9z"/>
		<path class="st0" d="M81.9,558.5v152.2c0,3.5-2.9,6.4-6.4,6.4s-6.4-2.9-6.4-6.4V540.2c-0.8-2.7,0-5.3,2.4-7.2
			c2.9-1.9,7.2-1.3,9,1.6l112.6,156.1V539.4c0-3.5,2.9-6.4,6.4-6.4c3.7,0,6.6,2.9,6.6,6.4v171.3c0,3.5-2.9,6.4-6.6,6.4
			c-2.1,0-3.7-0.8-5.1-2.4c-0.3-0.3-0.8-0.5-1.1-1.1L81.9,558.5L81.9,558.5z"/>
		<path class="st0" d="M75.8,803.9c0-3.7,2.9-6.6,6.4-6.6c3.7,0,6.6,2.9,6.6,6.6v107.5l112.3-112.3c2.7-2.4,6.9-2.4,9,0
			c2.7,2.4,2.7,6.6,0,9.3L139,879.6l72.8,92.4c2.1,2.9,1.6,6.6-1.1,9.3c-1.3,1.1-2.7,1.3-4.2,1.3c-1.9,0-3.4-0.5-4.8-2.4l-72-91.3
			l-40.9,40.9v46.5c0,3.5-2.9,6.4-6.6,6.4c-3.4,0-6.4-2.9-6.4-6.4L75.8,803.9L75.8,803.9z"/>
		<path class="st0" d="M139.4,1059.6c49.7,0,88.7,42.2,89,94.3c-0.3,52.1-39.3,94.3-89,94.3s-89.5-42.2-89.8-94.3
			C50,1101.8,89.2,1059.6,139.4,1059.6z M139.4,1235.2c40.9,0,75.4-35.8,75.7-81.3c-0.3-45.9-34.8-81-75.7-81s-76.8,35.1-76.8,81
			S97.2,1235.2,139.4,1235.2z"/>
		<path class="st0" d="M132.8,1420.5h-56c-3.4,0-6.4-2.9-6.4-6.6c0-3.4,2.9-6.4,6.4-6.4h124.8c3.4,0,6.4,2.9,6.4,6.4
			c0,3.7-2.9,6.6-6.4,6.6h-56V1587c0,3.4-2.9,6.4-6.4,6.4s-6.4-2.9-6.4-6.4L132.8,1420.5L132.8,1420.5z"/>
		<path class="st0" d="M186.7,1810.9H102l-16.5,43.8c-1.1,2.7-3.4,4.2-6.1,4.2c-0.5,0-1.6-0.3-2.4-0.3c-3.2-1.3-5-5.3-3.7-8.5
			l64.5-172.3c1.1-2.4,3.7-4,6.4-4c2.9,0,5.6,1.6,6.4,4l64.5,172.3c1.3,3.2-0.3,7.2-3.4,8.5c-1.1,0-1.6,0.3-2.4,0.3
			c-2.4,0-5.1-1.6-6.1-4.2L186.7,1810.9L186.7,1810.9z M106.8,1797.9h75.2l-37.4-99.8C144.5,1698.1,106.8,1797.9,106.8,1797.9z"/>
		<path class="st0" d="M132.8,1951.7h-56c-3.4,0-6.4-2.9-6.4-6.6c0-3.4,2.9-6.4,6.4-6.4h124.8c3.4,0,6.4,2.9,6.4,6.4
			c0,3.7-2.9,6.6-6.4,6.6h-56v166.5c0,3.4-2.9,6.4-6.4,6.4s-6.4-2.9-6.4-6.4L132.8,1951.7L132.8,1951.7z"/>
		<path class="st0" d="M132.8,2217.2h-56c-3.4,0-6.4-2.9-6.4-6.6c0-3.4,2.9-6.4,6.4-6.4h124.8c3.4,0,6.4,2.9,6.4,6.4
			c0,3.7-2.9,6.6-6.4,6.6h-56v166.5c0,3.4-2.9,6.4-6.4,6.4s-6.4-2.9-6.4-6.4L132.8,2217.2L132.8,2217.2z"/>
		<path class="st0" d="M139.4,2467.1c49.7,0,88.7,42.2,89,94.3c-0.3,52.1-39.3,94.3-89,94.3s-89.5-42.2-89.8-94.3
			C50,2509.4,89.2,2467.1,139.4,2467.1z M139.4,2642.7c40.9,0,75.4-35.9,75.7-81.3c-0.3-45.9-34.8-81-75.7-81s-76.8,35.1-76.8,81
			S97.2,2642.7,139.4,2642.7z"/>
	</g>
	<g class="st1">
		<path class="st2" d="M135.4,2889H81.1c9.7,30.5,29.2,51.5,61.8,59.4c-2.2,2.2-5.2,6.5-6.8,9.3c-31.1-8.8-50.3-28.5-61.5-57.9
			c-5.9,22.1-22,43.5-63.1,57.9c-1-2.5-4-6.6-6-8.6c43.6-15.3,56.9-37.9,60.7-60.2H12.7v-10.2h54.6c0.3-3.1,0.3-6.2,0.3-9.1v-27.3
			H8.1v-10.2h131.2v10.2H78v27.3c0,2.9,0,6-0.3,9.1h57.7V2889z"/>
		<path class="st2" d="M161.3,2821.9c6.5,5.8,11.6,11.8,15.8,18c5-6.3,9.4-12.8,12.8-18.9l10.3,5.3c-0.6,0.9-1.6,1.2-2.8,1
			c-4,6.8-9.3,14-15.5,20.9c8.3,16.7,9.6,34.4,9.6,52.8c0,22.1-1.5,42.6-7.4,50.9c-3.1,4-7.5,5.5-19.3,5.5c-1.9,0-3.7,0-5.6-0.1
			c0-3.2-1-6.9-2.8-9.6c3.4,0.1,6.5,0.3,9.1,0.3c8.1,0,9.7-0.7,11.4-2.8c3.8-5.2,5.2-24.2,5.2-44.2c0-2.8,0-5.6-0.1-8.4
			c-7.1,10.6-16.1,20.8-24.3,27.4c-1.6-2.4-4.3-5.9-6.6-7.7c10.8-7.2,23-21.4,29.8-34.5c-1-7.7-2.8-14.9-5.8-22.1
			c-5.3,5.3-10.9,10.3-16.5,14.7c-1.5-1.9-4.6-4.7-6.6-6.2c6.5-4.9,13-10.8,18.9-17.1c-4-6.8-9.3-13.4-16.4-19.9L161.3,2821.9z
			 M214.2,2834.4c21.7-3.5,45.1-8.8,58.4-14.2l9.7,7.5c-0.3,0.4-0.9,0.6-1.6,0.6c-0.4,0-0.9,0-1.3-0.1c-2.9,1-6.3,2.1-9.9,3.1
			c2.2,49.7,7.2,96.6,22.1,119c-2.4,1.6-5.8,4.9-7.5,7.4c-15.6-25.2-20.3-71.8-22.9-124.1c-13.6,3.4-29.8,6.3-45,8.7v38.8
			c0,22.7-2.4,54.3-19,76.8c-1.3-1.9-4.7-5.2-7.1-6.3c15.3-20.8,17-48.8,17-70.8v-48.5L214.2,2834.4z M258.5,2932.6
			c-2.4-7.1-5-14.3-7.7-20.5l7.1-1.9c5.5,12.7,11.2,29.3,13.4,40.3l-7.4,2.2c-0.7-3.5-1.8-7.7-3.1-12.1c-17.1,1.9-34.4,3.8-45.6,4.9
			c-0.3,1.2-1.2,1.9-2.1,2.1l-3.4-11.1c6.8-0.4,15.3-1,24.8-1.8v-92.9l11.5,0.7c-0.1,1-0.9,1.6-2.8,1.9v89.5L258.5,2932.6z"/>
	</g>
</g>
</svg>
