<?xml version="1.0" encoding="UTF-8"?>
<svg id="Layer_2" data-name="Layer 2" xmlns="http://www.w3.org/2000/svg" viewBox="0 0 694.1 777.02">
  <defs>
    <style>
      .cls-1 {
        fill: #ec008c;
        font-family: KozGoPr6N-Regular-90ms-RKSJ-H, 'Kozuka Gothic Pr6N';
        font-size: 36.16px;
      }

      .cls-2 {
        fill: #231f20;
        stroke-width: 0px;
      }
    </style>
  </defs>
  <g id="Layer_1-2" data-name="Layer 1">
    <g>
      <g>
        <g>
          <path class="cls-2" d="m288.5,254.21c25.99-5.87,51.42-5.75,76.8-.13,3.83-4.24,6-9.02,6.98-14.17,3.18-16.64,6.19-33.31,9.08-50,2.13-12.32,3.74-24.72,6.05-37,.77-4.07,2.77-7.97,4.62-11.74,2.36-4.81,6.66-6.86,11.87-7.02,6.31-.19,11.85,1.86,16.77,5.83,12.05,9.71,22.29,21.08,30.71,34.02,20.19,31.01,32.24,64.88,35.38,101.85,1.09,12.85,3.59,25.63,2.27,38.6-.96,9.42-1.05,19.22-3.94,28.07-2.31,7.1-.49,12.32,1.85,18.29,8.41,21.47,9.29,43.06,1.61,65.06-5.1,14.62-6.98,29.71-4.92,45.31,2.64,20.01-4.68,37.48-16.35,52.99-6.13,8.14-13.91,15.13-21.46,22.09-7.7,7.11-15.96,13.62-24.09,20.25-7.05,5.75-12.5,12.49-15.08,21.41-1.23,4.25-2.77,8.45-4.58,12.49-6.33,14.14-15.85,25.67-30.77,30.72-7.84,2.65-15.13,6.22-22.65,9.41-14.51,6.15-28.98,6.14-43.4-.16-3.67-1.6-7.14-3.67-10.72-5.49-1.06-.54-2.14-1.2-3.28-1.41-20.85-3.8-32.73-17.62-40.41-36.12-1.31-3.16-2.59-6.37-3.5-9.67-2.43-8.76-7.94-15.2-14.67-20.97-12.55-10.76-25.08-21.57-37.32-32.68-7.53-6.84-13.24-15.14-17.5-24.46-5.99-13.09-9.58-26.51-7.22-41.08,2.36-14.53-.28-28.67-4.96-42.27-7.64-22.22-6.92-44.02,1.61-65.66,2.39-6.07,2.25-10.62,1.24-18.24-2.85-16.95-5.08-33.89-2.86-51.16,2.19-17,3.15-34.18,7.64-50.82,8.75-32.41,22.87-62.04,45.8-86.95,4.63-5.03,9.87-9.52,15.13-13.9,2.25-1.88,5.14-3.24,7.96-4.17,10.58-3.47,18.07-.48,21.91,9.86,2.79,7.49,4.39,15.51,5.72,23.43,3.16,18.9,5.54,37.92,8.86,56.79,1.42,8.07,4.33,15.89,6.74,23.77.51,1.65,1.83,3.06,3.05,5.01Zm-7.67,1.91c-2.11-6.12-4.73-11.85-6.03-17.87-2.88-13.4-5.3-26.91-7.54-40.44-2.18-13.13-3.74-26.36-5.94-39.49-.72-4.32-2.23-8.61-4.05-12.61-2.34-5.12-5.41-6.62-10.81-5.13-3.38.93-6.79,2.67-9.54,4.86-14.74,11.71-26.02,26.39-35.33,42.62-23.4,40.83-31.23,85.23-29.54,131.65.32,8.83,2.01,17.64,3.51,26.38.85,4.98.43,9.59-1.43,14.2-.83,2.06-1.52,4.17-2.23,6.27-6.55,19.17-6.76,38.21-.05,57.54,5.13,14.79,7.48,30.1,5.2,45.89-1.01,7.01-1.07,14.06.91,21.02,4.45,15.64,11.62,29.69,23.95,40.63,11.46,10.17,23.15,20.1,34.65,30.23,3.99,3.52,7.75,7.3,12.12,11.45.1-1.43.15-2.17.2-2.91.67-10.35,4.27-19.65,10.21-28.07,3.46-4.9,8.03-8.51,13.65-10.65,9.48-3.61,22.29,1.13,24.34,12.01.31,1.64.5,4.87-1.5,4.87s-3.37-5.04-5.02-7.31c-5.22-7.17-11.27-8.47-18.93-4.06-7.69,4.42-11.9,11.44-15.35,20.28,3.51-1.64,5.92-3.09,8.52-3.93,10.82-3.51,18.66,2.47,18.28,13.8-.17,5.22-4.73,7.94-9.31,5.4-1.56-.86-2.76-2.33-4.24-3.38-3.51-2.5-7.17-2.25-9.69.88-3.53,4.4-5.51,9.83-5,15.18.97,10.26,5.05,19.59,12.43,26.99,5.12,5.13,11.61,8.13,18.87,8.71,11.93.96,22.29-2.86,30.73-11.39,1.87-1.89,3.18-4.35,4.27-5.88-7.15-7.24-13.59-13.77-20.72-20.99-1.36,2.31-2.56,4.36-3.67,6.26-4.98-2.92-6.37-6.22-6.15-10.37.43-8.33,8.15-14.05,16.74-12.01,3.08.73,6.04,2.26,8.83,3.83,7.33,4.13,14.51,4.17,21.82,0,2.44-1.4,4.99-2.73,7.65-3.57,6.34-1.98,12.73.35,15.97,5.48,3.73,5.9,2.12,12.74-3.91,15.82-1.39-1.54-2.82-3.13-4.44-4.93-6.82,6.87-13.38,13.5-20.22,20.4,1.75,4.83,6.01,8.02,10.28,10.95,15.84,10.86,38.72,8.75,49.01-9.48,2.83-5.02,4.62-10.69,6.4-16.22,2.08-6.48-.52-12.37-3.71-17.79-2.45-4.16-6.42-4.64-10.39-1.85-1.48,1.04-2.68,2.51-4.24,3.38-3.88,2.18-8.55.37-9-3.68-1.07-9.8,3.82-18.92,16.29-15.97,1.94.46,3.78,1.35,5.65,2.11,1.15.47,2.24,1.06,4.51,2.15-3.61-8.91-7.65-15.67-14.96-19.98-7.92-4.67-14.02-3.41-19.41,4.03-1.81,2.51-2.19,7.2-5.42,7.2s-.12-7.53.66-8.88c1.57-2.71,3.72-5.1,6.37-6.78,5.37-3.4,11.98-3.3,17.67-.74,9.02,4.06,14.61,11.4,17.97,20.33,2.43,6.46,3.89,13.29,5.66,19.53,5.48-4.84,11.34-10,17.19-15.16,9.83-8.68,19.75-17.25,29.45-26.06,12.53-11.38,19.78-25.89,23.57-42.14,1.03-4.43.93-9.2.82-13.8-.16-6.44-1.37-12.89-1.12-19.3.43-11.33,2.89-22.36,6.37-33.18,1.78-5.54,3.23-11.27,4.04-17.03,2.12-15.16-.69-29.78-6.23-43.87-2.23-5.66-2.71-11.1-1.63-17.12,3.25-18.1,5.7-36.3,2.93-54.75-.45-2.99-.8-6-1.04-9.02-2.43-31.21-10.71-60.68-25.76-88.22-9.78-17.88-21.63-34.06-37.6-46.93-2.6-2.09-5.75-3.85-8.93-4.81-5.95-1.8-9.24-.36-11.75,5.4-1.99,4.57-3.52,9.49-4.34,14.41-3.06,18.3-5.58,36.68-8.63,54.98-2.25,13.49-3.65,27.27-10.6,39.53-.14.25.14.74.21,1.07,3.08,1.96,6.27,3.72,9.1,5.94,1,.78,1.86,2.93,1.49,4-.68,1.98-2.62,1.24-4.13.55-.91-.42-1.82-.89-2.66-1.44-5.69-3.71-12.01-5.59-18.65-6.7-10.96-1.84-21.95-2.38-33.09-2.47-10.39-.08-20.49,1.13-30.65,2.66-6.25.94-12.12,2.94-17.52,6.32-1.51.95-3.2,1.78-4.92,2.19-1.78.43-3.14-1.48-2.24-3.1.65-1.18,1.71-2.25,2.83-3.02,2.64-1.8,5.42-3.39,7.91-4.92Zm15.75,322.23c6.73-1.91,10.27,1.41,13.63,5.53,2.92,3.58,5.97,7.12,9.41,10.18,6.01,5.33,8.72,5.32,14.69.19,3.03-2.61,5.83-5.58,8.34-8.71,3.72-4.65,7.25-9.3,14.45-7.62-2.4-5.28-5.04-6.92-9.38-5.61-2.47.75-4.79,2.09-7.09,3.32-9.06,4.87-18.07,4.9-27.12-.02-1.94-1.06-3.87-2.21-5.94-2.97-4.96-1.81-7.75-.48-10.99,5.69Zm9.48,55.46c10.86,7.34,33.29,7.08,41.52-.18-6.76-3.27-13.72-6.63-20.47-9.89-6.8,3.26-13.8,6.61-21.05,10.08Zm63.46-8.86c-4.34.02-8.53.02-12.81-.89-4-.86-7.85-2.32-11.4-4.34-5.81-3.29-10.71-7.96-14.86-13.16-1.18,4.19-1.47,8.83,2.32,12.76,7.9,5.95,17.49,8.59,27.32,7.89,1.69-.12,3.37-.33,5.04-.61,1.03-.17,2.13-.19,3.11-.58.52-.21,1.01-.56,1.28-1.07Zm-45.75-18.39c-5.41,5.66-11.37,11.68-17.94,14.7-3.28,1.51-6.85,2.2-10.43,2.51s-7.2.06-10.73.52c.34.79.53,1.32,1.32,1.68.74.33,1.57.6,2.38.68,9.92,1.07,19.61.99,28.6-4.45,7.28-4.41,10.14-6.68,6.8-15.65Zm-63.91-43.11c7.56-1.79,12.44,1.12,16.97,5.24,1.21-5.5-.02-9.21-3.26-10.77-3.53-1.7-8.77.07-13.71,5.53Zm133.76-.71c-4.05-4.64-9.37-6.51-12.93-4.87-3.22,1.49-4.48,5.08-3.59,10.25q9.92-5.23,16.52-5.39Z"/>
          <path class="cls-2" d="m187.8,303.62c.07-1.44.16-2.88.27-4.3.56-7.72,1.1-15.41,2.15-23.1,2.13-15.63,5.68-31.07,10.82-45.99,4.21-12.22,9.49-24.07,15.77-35.36,3-5.38,7-10.36,11.27-14.83,5.78-6.05,12.56-4.36,15.47,3.61,1.29,3.54,1.77,7.44,2.25,11.22,2.58,20.23,6.97,40.08,12.38,59.71,2.44,8.85.7,15.72-5.88,22.46-9.13,9.35-17.24,19.69-25.73,29.66-4.97,5.83-9.78,11.78-14.76,17.6-2.23,2.6-4.76,5.32-7.75,7.04-2.13,1.22-4.7,1.87-7.07,1.23-3.78-1.02-6.01-4.92-7.22-8.64-2.11-6.55-2.3-13.46-1.96-20.29Zm45.86-121.28c-3.86,3.78-7.23,7.59-10.08,12.19-2.95,4.76-5.78,9.6-8.13,14.68-.35.76-.69,1.52-1.02,2.29-9.46,22.18-16.14,45.22-18.77,69.23-.82,7.47-1.61,14.95-1.81,22.46-.2,7.12-.39,14.56,2.47,21.17,1.33,3.08,3.16,3.33,5.75,1.3,1.58-1.24,3.02-2.69,4.33-4.21,5-5.81,9.87-11.72,14.89-17.51,9.1-10.52,18.06-21.17,27.5-31.37,4.16-4.5,5.64-9.06,4.05-14.84-3.06-11.13-5.76-22.35-8.12-33.65-2.34-11.23-4.6-22.6-5.99-33.99-.99-6.69-3.04-9.43-5.06-7.74Z"/>
          <path class="cls-2" d="m466.52,319c-.37,2.92-1.43,5.92-2.86,8.51-3.25,5.88-9,7-14.25,2.83-2.66-2.11-5.08-4.62-7.28-7.22-6.12-7.23-11.94-14.7-18.12-21.88-7.62-8.85-15.34-17.63-23.26-26.2-5.19-5.62-6.15-11.78-4.4-19.01,3.6-14.87,7.03-29.8,10.19-44.77,1.62-7.67,2.41-15.52,3.82-23.25.46-2.51,1.27-5.15,2.63-7.27,3.33-5.16,8.41-6.02,12.73-1.69,4.36,4.38,8.65,9.16,11.67,14.5,17.54,31.05,26.65,64.65,29.15,100.13.21,3.02.66,19.94-.02,25.31Zm-45.88-136.71c-3.7,1.67-3.86,4.64-4.33,7.36-1.3,7.55-2.22,15.17-3.83,22.65-3.22,14.97-6.65,29.9-10.28,44.77-1.35,5.51-.94,10.1,3.03,14.54,10.34,11.56,20.39,23.38,30.57,35.08,5.03,5.78,9.94,11.66,15.19,17.24,4.29,4.56,7.04,3.89,8.75-2.24,1.12-4.02,1.96-8.4,1.62-12.5-1.25-15.05-2.09-30.23-4.85-45.03-4.42-23.63-11.35-46.61-23.62-67.61-3.26-5.59-7.19-10.54-12.25-14.27Z"/>
          <g>
            <g>
              <path class="cls-2" d="m181.65,388.46c5.73,4.92,10.59,9.08,15.42,13.26,9.17,7.94,19.9,12.94,31.37,16.46,13.56,4.17,26.68,9.18,38.08,17.93,17.55,13.48,28.86,30.72,31.92,52.9,1.26,9.15.12,18.11-2.95,26.79-.68,1.92-2.06,3.58-3.11,5.36-.4-.1-.81-.2-1.21-.29-.27-1.24-.64-2.47-.78-3.72-.7-6.36-2.86-11.98-6.89-17.12-3.83-4.89-8.69-7.08-14.57-7.34-3.61-.16-7.28-.06-10.86.41-9.76,1.28-19.29.9-28.57-2.69-1.24-.48-2.73-.53-4.09-.49-21.75.63-37.08-13.88-36.03-34.66.53-10.57.31-20.94-2.97-31.06-1.49-4.59-3.39-9.04-4.97-13.61-1.88-5.44-2.23-11.05-1.35-16.72.24-1.52.85-2.98,1.56-5.41Zm17.26,48.12c.08.59.04,1.38.31,2.03,3.43,8.38,6.43,16.99,10.47,25.07,8.49,16.99,26.06,26.61,46.21,23.63,4.36-.64,8.85-.91,13.25-.7,7.49.36,14.24,2.67,18.96,9.06.5.68,1.37,1.23,2.11,1.56,1.19-8.81-4.89-20.33-10.02-27.06-11.26-14.75-26.21-23.58-44.33-27.13-12.03-2.36-24.08-4.62-36.13-6.91-.14-.03-.33.17-.83.44Zm79.68,21.43c.05,0,.1-.04.14-.07.1-.08.2-.16.3-.25.03-.03.07-.06.08-.1.01-.04,0-.09-.02-.13-.71-1.79-1.99-2.93-3.31-4.27s-2.74-2.8-4.11-4.19c-2.74-2.78-5.54-5.52-8.54-8.01-10.59-8.79-23.3-13.43-36.3-17.37-7.95-2.41-15.72-5.52-22.87-9.78-3.56-2.12-6.95-4.52-10.11-7.2-3.04-2.58-5.54-5.82-9.25-7.48.67.23,1.51,5.53,1.79,6.54.68,2.46,1.36,4.92,2,7.39,2.71,10.33,9.11,16.9,19.68,18.99,6.91,1.37,13.85,2.62,20.83,3.56,7.16.96,14.25,2.55,21.05,5s13.17,5.72,19.01,9.86c1.62,1.15,3.19,2.36,4.71,3.63s3.02,2.76,4.76,3.84c.04.02.08.05.14.05Zm-82.65-7.61c-3.4,17.08,5.06,30.18,22.44,33.5-12.13-9.1-16.68-21.61-22.44-33.5Z"/>
              <path class="cls-2" d="m305.12,442.75c-.08.01-3.54-8.9-3.92-9.72-1.45-3.17-3.08-6.27-4.95-9.22-3.77-5.95-8.55-11.29-14.28-15.42-1.13,1.61-2.28,3.21-3.37,4.85-3.88,5.83-8.93,7.16-15.1,3.95-5.32-2.77-9.19-7.62-10.36-13.54-.42-2.15-.5-4.37-.3-6.55.1-1.09.27-2.18.5-3.26.13-.63.86-2.2.56-2.79-.29-.58-1.3-.85-1.81-1.2-.79-.54-1.57-1.1-2.27-1.77-4.35-4.15-9.03-8.07-12.78-12.72-5.73-7.1-7.68-15.35-5.36-24.46.56-2.21.91-4.46,1.24-6.72.16-1.09.42-2.16.51-3.26.09-1.19.11-2.42.57-3.54.4-.96,1.1-1.77,1.88-2.46.27-.24.56-.47.91-.58.57-.18,1.21,0,1.7.35.84.59,1.57,1.6,2.04,2.5.87,1.64,1.28,3.48,2.05,5.16.68,1.47,1.45,2.9,2.32,4.27,1.67,2.61,3.7,4.99,6.03,7.04,4.1,3.6,9.04,6.11,14.23,7.73,7.82,2.44,14.08,6.87,19.29,12.94,13.74,15.99,21.97,39.79,22.74,55.59.37,4.13-1.59,12.74-2.08,12.83Zm-5.9-22.5c-2.45-17.89-10.26-32.82-22.42-45.49-3.68-3.84-8.2-6.51-13.38-7.92-8.88-2.42-15.93-7.59-21.79-14.51-.86-1.01-1.41-2.28-2.56-4.19-3.5,8.98-2.43,15.82,1.73,22.32,4.91,7.68,11.6,13.32,19.79,17.25,1.45.7,3.12,1.13,4.32,2.13,1.07.89,1.63,2.39,2.41,3.62-1.11.69-2.14,1.66-3.34,1.98-1.26.34-2.63.14-3.91.07-.07,0-.14,0-.2.03-.07.04-.11.11-.15.18-2.45,4.64-.42,8.86,2.58,12.61,4.83,6.03,7.93,5.83,12.3-.56,3.23-4.72,7.77-6.05,12.47-2.83,3.07,2.1,5.57,5.15,7.94,8.09,1.73,2.14,2.82,4.78,4.2,7.2Z"/>
              <path class="cls-2" d="m209.63,499.21c2.07,1.47,3.41,2.52,4.85,3.41,5.64,3.51,11.49,5.52,18.3,3.52,4.8-1.41,9.74-2.58,14.7-3.23,7.64-1,14.5,3.26,16.85,9.86,2.08,5.86.19,10.74-5.68,12.51-3.52,1.07-7.72,1.75-11.16.85-11.76-3.09-22.71-8.06-31.73-16.59-2.8-2.64-5-5.56-6.11-10.33Zm15.52,12.55c7.8,5.48,15.78,8.66,24.11,11.02,2.96.84,7.96.09,10.15-2.17,1.34-1.38,1.8-3.47,1.46-5.37s-1.43-3.6-2.79-4.96c-3.71-3.69-8.67-4.08-13.55-3.03-3.41.74-6.81,1.53-10.2,2.33-1.34.32-8.12,2.92-9.18,2.18Z"/>
              <path class="cls-2" d="m314.85,373.84c-.12-1.71-.14-3.43-.25-5.11-.27-4.09-1.1-8.21-2.07-12.19-.08-.34-.17-.67-.25-1.01-1.03-3.98-2.3-7.89-3.73-11.74-.32-.87-.65-1.73-.99-2.6-2.59-6.66-6.72-12.82-10.77-18.8-2.91-4.3-4.85-4.48-9.85-2.56-3.76,1.44-7.26,1.1-10.24-1.39-5.92-4.94-10.1-11.23-10.85-18.96-.62-6.36-.1-12.85.13-19.27.03-.92,1.15-2.29,2.03-2.54.88-.25,2.55.33,3.06,1.09,1.33,1.99,2.19,4.29,3.27,6.45,1.19,2.4,2.51,4.8,4.13,6.93.76,1,1.75,2.34,2.98,2.79,1.42.51,3.34-.72,4.5-1.43,5.34-3.26,10.15-2.07,14.3,1.99,2.42,2.36,4.69,5.09,6.27,8.05,3.74,7.01,6.86,14.36,9.14,21.98s3.66,15.18,4.17,22.97c.26,3.94.28,7.89.08,11.83-.2,3.98-.52,8.04-1.3,11.95-.54,2.73-1.35,5.42-2.41,7.99-.89-2.05-1.2-4.23-1.36-6.43Zm-16.98-72.24c-3.46-4.45-5.16-4.59-10.28-2.17-5.7,2.69-7.75,2.36-12.44-1.99-.84-.77-1.7-1.52-2.76-2.46-.99,6.65,3.37,16.66,8.33,19.1,1.24.61,3.22.55,4.53,0,7.23-3,12.56-.24,16.91,5.36,2.57,3.31,4.85,6.84,7.27,10.27-2.19-10.13-5.16-19.9-11.56-28.12Z"/>
              <circle class="cls-2" cx="218.41" cy="383.24" r="4.85"/>
              <path class="cls-2" d="m327.13,442.08c-7.03,0-12.73,5.7-12.73,12.73s5.7,12.73,12.73,12.73,12.73-5.7,12.73-12.73-5.7-12.73-12.73-12.73Zm0,19.85c-3.93,0-7.12-3.19-7.12-7.12s3.19-7.12,7.12-7.12,7.12,3.19,7.12,7.12-3.19,7.12-7.12,7.12Z"/>
            </g>
            <g>
              <path class="cls-2" d="m474.14,393.87c.88,5.67.54,11.28-1.35,16.72-1.58,4.56-3.48,9.02-4.97,13.61-3.28,10.12-3.5,20.48-2.97,31.06,1.05,20.78-14.28,35.29-36.03,34.66-1.36-.04-2.85.01-4.09.49-9.29,3.6-18.82,3.98-28.57,2.69-3.58-.47-7.25-.57-10.86-.41-5.88.26-10.73,2.45-14.57,7.34-4.03,5.13-6.19,10.76-6.89,17.12-.14,1.25-.51,2.48-.78,3.72-.4.1-.81.2-1.21.29-1.06-1.78-2.43-3.45-3.11-5.36-3.08-8.68-4.22-17.64-2.95-26.79,3.06-22.18,14.37-39.42,31.92-52.9,11.4-8.76,24.52-13.77,38.08-17.93,11.47-3.52,22.2-8.52,31.37-16.46,4.83-4.18,9.69-8.34,15.42-13.26.72,2.42,1.33,3.89,1.56,5.41Zm-19.65,42.28c-12.04,2.29-24.09,4.56-36.13,6.91-18.13,3.55-33.07,12.37-44.33,27.13-5.13,6.73-11.21,18.24-10.02,27.06.74-.33,1.61-.88,2.11-1.56,4.72-6.39,11.48-8.7,18.96-9.06,4.4-.21,8.89.06,13.25.7,20.16,2.98,37.73-6.64,46.21-23.63,4.04-8.08,7.04-16.69,10.47-25.07.27-.66.23-1.44.31-2.03-.5-.27-.69-.47-.83-.44Zm-78.71,21.82c1.75-1.08,3.19-2.53,4.76-3.84,1.52-1.27,3.1-2.48,4.71-3.63,5.85-4.15,12.27-7.43,19.01-9.86,6.8-2.45,13.89-4.05,21.05-5,6.98-.93,13.92-2.19,20.83-3.56,10.56-2.09,16.97-8.66,19.68-18.99.65-2.47,1.32-4.93,2-7.39.28-1.01,1.12-6.31,1.79-6.54-3.71,1.66-6.21,4.9-9.25,7.48-3.16,2.68-6.55,5.08-10.11,7.2-7.15,4.26-14.92,7.37-22.87,9.78-13,3.94-25.71,8.58-36.3,17.37-3.01,2.5-5.8,5.23-8.54,8.01-1.38,1.39-2.74,2.8-4.11,4.19s-2.6,2.48-3.31,4.27c-.02.04-.03.09-.02.13.01.04.05.07.08.1.1.08.2.16.3.25.04.03.09.07.14.07.05,0,.1-.03.14-.05Zm60.07,25.94c17.38-3.32,25.84-16.42,22.44-33.5-5.76,11.89-10.31,24.4-22.44,33.5Z"/>
              <path class="cls-2" d="m347.02,429.91c.77-15.8,9-39.6,22.74-55.59,5.21-6.07,11.48-10.5,19.29-12.94,5.19-1.62,10.13-4.13,14.23-7.73,2.33-2.05,4.36-4.42,6.03-7.04.87-1.37,1.65-2.8,2.32-4.27.78-1.68,1.19-3.52,2.05-5.16.48-.9,1.2-1.91,2.04-2.5.49-.35,1.13-.54,1.7-.35.35.11.64.34.91.58.78.69,1.48,1.5,1.88,2.46.46,1.12.48,2.35.57,3.54.09,1.1.35,2.17.51,3.26.33,2.25.67,4.51,1.24,6.72,2.33,9.11.38,17.36-5.36,24.46-3.76,4.65-8.43,8.57-12.78,12.72-.69.66-1.48,1.23-2.27,1.77-.51.35-1.51.62-1.81,1.2-.3.6.43,2.16.56,2.79.23,1.07.4,2.16.5,3.26.2,2.18.12,4.4-.3,6.55-1.17,5.92-5.03,10.77-10.36,13.54-6.17,3.21-11.23,1.88-15.1-3.95-1.09-1.64-2.24-3.24-3.37-4.85-5.72,4.13-10.51,9.47-14.28,15.42-1.87,2.95-3.5,6.05-4.95,9.22-.38.82-3.84,9.74-3.92,9.72-.49-.09-2.46-8.7-2.08-12.83Zm12.18-16.87c2.37-2.94,4.88-5.99,7.94-8.09,4.71-3.23,9.24-1.89,12.47,2.83,4.37,6.39,7.48,6.59,12.3.56,3-3.76,5.03-7.98,2.58-12.61-.04-.07-.08-.14-.15-.18-.06-.03-.13-.03-.2-.03-1.28.06-2.65.27-3.91-.07-1.21-.32-2.24-1.3-3.34-1.98.78-1.23,1.35-2.73,2.41-3.62,1.2-1,2.86-1.43,4.32-2.13,8.18-3.93,14.88-9.57,19.79-17.25,4.15-6.5,5.23-13.35,1.73-22.32-1.15,1.91-1.7,3.18-2.56,4.19-5.86,6.92-12.91,12.09-21.79,14.51-5.18,1.41-9.69,4.08-13.38,7.92-12.16,12.67-19.98,27.6-22.42,45.49,1.38-2.42,2.48-5.06,4.2-7.2Z"/>
              <path class="cls-2" d="m438.47,509.54c-9.02,8.53-19.98,13.5-31.73,16.59-3.43.9-7.64.22-11.16-.85-5.87-1.78-7.76-6.65-5.68-12.51,2.34-6.61,9.2-10.86,16.85-9.86,4.96.65,9.89,1.82,14.7,3.23,6.81,2,12.66,0,18.3-3.52,1.43-.89,2.77-1.94,4.85-3.41-1.12,4.77-3.32,7.69-6.11,10.33Zm-18.59.04c-3.4-.8-6.79-1.59-10.2-2.33-4.88-1.05-9.85-.66-13.55,3.03-1.36,1.36-2.44,3.06-2.79,4.96s.12,3.98,1.46,5.37c2.19,2.26,7.2,3.01,10.15,2.17,8.33-2.36,16.31-5.54,24.11-11.02-1.06.74-7.85-1.86-9.18-2.18Z"/>
              <path class="cls-2" d="m338.02,380.27c-1.06-2.58-1.87-5.26-2.41-7.99-.78-3.91-1.09-7.97-1.3-11.95-.2-3.94-.18-7.89.08-11.83.51-7.78,1.93-15.5,4.17-22.97s5.4-14.97,9.14-21.98c1.58-2.96,3.86-5.69,6.27-8.05,4.14-4.05,8.96-5.24,14.3-1.99,1.16.71,3.09,1.95,4.5,1.43,1.23-.45,2.22-1.79,2.98-2.79,1.63-2.14,2.94-4.53,4.13-6.93,1.08-2.16,1.94-4.46,3.27-6.45.51-.76,2.18-1.34,3.06-1.09.88.25,2,1.63,2.03,2.54.23,6.42.75,12.91.13,19.27-.75,7.72-4.93,14.01-10.85,18.96-2.98,2.49-6.48,2.83-10.24,1.39-5-1.92-6.93-1.74-9.85,2.56-4.05,5.97-8.18,12.13-10.77,18.8-.34.86-.66,1.73-.99,2.6-1.43,3.85-2.7,7.76-3.73,11.74-.09.34-.17.67-.25,1.01-.98,3.98-1.81,8.09-2.07,12.19-.11,1.69-.13,3.41-.25,5.11-.15,2.2-.47,4.38-1.36,6.43Zm6.78-50.54c2.41-3.43,4.69-6.97,7.27-10.27,4.36-5.6,9.68-8.36,16.91-5.36,1.31.54,3.3.6,4.53,0,4.95-2.43,9.31-12.45,8.33-19.1-1.06.94-1.92,1.68-2.76,2.46-4.7,4.35-6.74,4.68-12.44,1.99-5.13-2.42-6.82-2.27-10.28,2.17-6.4,8.22-9.37,17.99-11.56,28.12Z"/>
              <circle class="cls-2" cx="435.81" cy="383.24" r="4.85"/>
            </g>
          </g>
        </g>
        <g>
          <path class="cls-2" d="m80.71,81.63l-27.15,17.28c-1.67,1.07-3.99.55-5.14-1.25-1.07-1.67-.55-3.99,1.12-5.05l60.47-38.5c1.67-1.06,3.99-.55,5.05,1.12,1.15,1.8.63,4.12-1.04,5.18l-27.15,17.28,51.36,80.67c1.06,1.67.55,3.99-1.12,5.05-1.67,1.06-3.99.55-5.05-1.12l-51.36-80.67Z"/>
          <path class="cls-2" d="m158.39,35.77c-.62-1.88.45-4,2.33-4.62l.29-.09,51.87-17.08c2.03-.67,4,.45,4.62,2.33.67,2.03-.26,4.1-2.29,4.77l-48.54,15.98,13.21,40.13,42.45-13.97c1.88-.62,4,.45,4.67,2.48.62,1.88-.45,4-2.33,4.62l-42.45,13.98,13.16,39.99,48.54-15.98c2.03-.67,4,.45,4.67,2.48.62,1.88-.3,3.95-2.33,4.62l-51.72,17.03-.43.14-.29.1c-1.79.43-3.71-.54-4.33-2.43l-31.1-94.46Z"/>
          <path class="cls-2" d="m274.29,17.72l3.99,87.31c.09,1.98-1.51,3.73-3.49,3.82-1.98.09-3.73-1.51-3.82-3.49l-4.47-97.82c-.53-1.5-.14-3.05,1.18-4.18,1.63-1.14,4.08-.95,5.22.68l68.7,86.64-3.97-86.85c-.09-1.98,1.51-3.73,3.49-3.82,2.13-.1,3.89,1.5,3.98,3.48l4.49,98.28c.09,1.98-1.51,3.73-3.64,3.83-1.22.05-2.16-.36-2.96-1.24-.16-.15-.47-.28-.64-.58l-68.06-86.06Z"/>
          <path class="cls-2" d="m406.17,8.76c.53-2.07,2.57-3.28,4.49-2.79,2.07.53,3.28,2.57,2.75,4.64l-15.24,59.86,78.44-46.61c1.82-.95,4.18-.35,5.03,1.28,1.14,1.71.54,4.07-1.32,5.17l-49.7,29.53,27.41,61.75c.77,1.93-.05,3.92-1.91,5.02-.89.4-1.67.36-2.55.14-1.03-.26-1.85-.79-2.32-2.01l-27.11-61.04-28.56,16.97-6.59,25.87c-.49,1.92-2.53,3.13-4.6,2.61-1.92-.49-3.13-2.53-2.64-4.45l24.42-95.93Z"/>
          <path class="cls-2" d="m568.12,63.89c24.43,14.72,31.12,47.06,15.82,72.75-15.56,25.53-47.28,34.73-71.71,20.01-24.69-14.88-31.51-47.3-16.21-72.98,15.56-25.53,47.41-34.65,72.1-19.77Zm-52.03,86.35c20.12,12.12,47.73,4.72,61.32-17.54,13.49-22.68,6.9-50.16-13.22-62.28-20.77-12.52-48.15-5.5-61.77,17.1-13.46,22.34-7.1,50.21,13.67,62.73Z"/>
        </g>
        <g>
          <path class="cls-2" d="m135.49,589.76l-21.57-23.88c-1.33-1.47-1.21-3.84.38-5.27,1.47-1.33,3.84-1.21,5.17.26l48.05,53.2c1.33,1.47,1.21,3.84-.26,5.17-1.58,1.43-3.95,1.31-5.28-.16l-21.57-23.88-70.97,64.1c-1.47,1.33-3.84,1.21-5.17-.26-1.33-1.47-1.21-3.84.26-5.17l70.97-64.1Z"/>
          <path class="cls-2" d="m181.15,715.9l-41.62-25.2-21.12,16.63c-1.31.99-2.96,1.06-4.26.27-.26-.16-.7-.6-1.1-.84-1.17-1.6-.9-4.11.7-5.28l82.98-65.48c1.23-.86,3.01-.85,4.32-.06,1.44.87,2.27,2.44,1.95,3.85l-19.56,103.87c-.3,1.96-2.26,3.44-4.22,3.15-.52-.32-.86-.34-1.25-.58-1.17-.71-2-2.28-1.74-3.9l4.95-26.43Zm-35.4-30.17l36.92,22.36,11.31-60.2-48.23,37.84Z"/>
          <path class="cls-2" d="m259.13,668.8l-31.14-8.13c-1.92-.5-3.12-2.55-2.58-4.61.5-1.92,2.55-3.12,4.47-2.62l69.37,18.11c1.92.5,3.12,2.55,2.62,4.47-.54,2.07-2.59,3.27-4.5,2.77l-31.14-8.13-24.16,92.54c-.5,1.92-2.55,3.12-4.47,2.62-1.92-.5-3.12-2.55-2.62-4.47l24.16-92.54Z"/>
          <path class="cls-2" d="m346.03,678.37l-32.07,2.72c-1.98.17-3.79-1.36-3.97-3.49-.17-1.98,1.36-3.79,3.34-3.96l71.43-6.06c1.98-.17,3.79,1.36,3.96,3.34.18,2.13-1.35,3.94-3.33,4.11l-32.07,2.72,8.08,95.3c.17,1.98-1.36,3.79-3.34,3.96-1.98.17-3.79-1.36-3.96-3.34l-8.08-95.3Z"/>
          <path class="cls-2" d="m436.2,645.91c25.66-12.44,56.42-.41,69.6,26.43,12.91,26.97,3.31,58.57-22.35,71.01-25.94,12.58-56.83.61-70.01-26.23-12.91-26.97-3.17-58.64,22.76-71.21Zm43.99,90.72c21.14-10.25,29.99-37.43,18.75-60.96-11.65-23.68-38.27-33.14-59.41-22.89-21.82,10.58-30.88,37.35-19.37,61.09,11.38,23.47,38.2,33.35,60.03,22.77Z"/>
          <path class="cls-2" d="m522.12,578.84c17.91-22.2,50.86-24.43,74.23-5.78,23.18,18.89,27.98,51.57,10.07,73.77-18.1,22.44-51.15,24.79-74.52,6.14-23.18-18.89-27.88-51.68-9.79-74.12Zm78.48,63.29c14.75-18.29,11.16-46.65-9.04-63.14-20.64-16.45-48.76-13.65-63.5,4.64-15.23,18.88-12,46.95,8.54,63.52,20.3,16.37,48.78,13.87,64.01-5.01Z"/>
        </g>
      </g>
      <g>
        <g>
          <path class="cls-2" d="m.04,408.84l5.44-30.85c.26-1.57,1.78-2.88,3.4-2.88h17.05c1.62,0,2.67,1.31,2.41,2.88-.31,1.62-1.83,2.93-3.4,2.93h-14.17l-1.73,9.62h12.24c1.57,0,2.67,1.25,2.35,2.88-.26,1.62-1.78,2.88-3.4,2.88h-12.18l-1.73,9.62h14.17c1.62,0,2.67,1.31,2.41,2.93-.31,1.57-1.83,2.88-3.4,2.88H2.45c-1.62,0-2.67-1.31-2.41-2.88Z"/>
          <path class="cls-2" d="m29.95,402.82c1.1-1.1,2.77-1.25,3.77-.37,1.88,1.83,5.39,3.97,9.1,3.92,2.56,0,4.97-.78,6.64-1.88,1.73-1.15,2.61-2.41,2.88-3.66.1-.68.05-1.15-.16-1.62-.26-.52-.63-1.05-1.31-1.52-1.31-.99-3.66-1.88-6.59-2.46h-.1c-2.3-.47-4.39-1.1-6.17-1.99-1.78-.94-3.24-2.14-4.08-3.97-.52-1.2-.68-2.67-.42-4.13.58-3.09,2.77-5.75,5.44-7.43,2.67-1.73,5.91-2.72,9.26-2.72,4.92,0,8.05,2.41,10.35,4.08,1.1.78,1.1,2.41.1,3.61-.99,1.2-2.67,1.57-3.71.73-2.3-1.67-4.55-3.24-7.63-3.19-2.35-.05-4.55.68-6.07,1.67-1.52,1.05-2.3,2.14-2.51,3.24-.1.58-.05.99.16,1.41.16.42.52.84,1.1,1.31,1.2.94,3.35,1.73,6.01,2.25h.1c2.51.47,4.76,1.15,6.69,2.14,1.83.99,3.45,2.3,4.29,4.18.58,1.31.73,2.82.42,4.39-.58,3.24-2.88,6.07-5.7,7.9-2.88,1.83-6.33,2.88-9.94,2.88-5.54-.05-9.73-2.77-12.18-5.12-.94-.89-.84-2.51.26-3.66Z"/>
          <path class="cls-2" d="m65.77,375h22.22c1.62,0,2.67,1.26,2.41,2.88-.26,1.62-1.83,2.88-3.4,2.88h-8.26l-4.92,27.92c-.26,1.62-1.78,2.93-3.4,2.93s-2.67-1.31-2.35-2.93l4.92-27.92h-8.26c-1.57,0-2.67-1.26-2.35-2.88.26-1.62,1.78-2.88,3.4-2.88Z"/>
        </g>
        <g>
          <path class="cls-2" d="m590.81,399.38c-.31,1.5-1.83,2.74-3.4,2.74h-18.67c-.79,0-1.52-.3-1.94-.9-.89-1.15-.47-2.89.89-3.94l17.94-13.32c1.73-1.3,2.77-3.04,3.08-4.79.31-1.55,0-3.09-.94-4.34-1.1-1.4-2.77-2.1-4.6-2.1-1.62,0-3.35.55-4.86,1.65l-1.88,1.4c-1.41,1.05-3.19.95-4.08-.2-.84-1.1-.42-2.84.94-3.89l1.88-1.4c2.77-2.05,6.01-3.09,8.99-3.09,3.4,0,6.59,1.35,8.58,3.94,1.78,2.3,2.3,5.19,1.78,8.03-.58,3.24-2.61,6.54-5.75,8.88l-11.45,8.53h11.09c1.62,0,2.67,1.25,2.41,2.79Z"/>
          <path class="cls-2" d="m623.81,372.69c1.67,3.19,2.14,7.38,1.31,11.93-.84,4.54-2.88,8.73-5.7,11.93-2.77,3.19-6.64,5.54-10.72,5.54s-7.06-2.34-8.68-5.54c-1.67-3.19-2.14-7.38-1.31-11.93.84-4.54,2.88-8.73,5.7-11.93,2.82-3.19,6.64-5.54,10.72-5.54s7.06,2.35,8.68,5.54Zm-4.45,11.93c.63-3.54.21-6.74-.94-8.88-1.1-2.15-2.67-3.09-4.29-3.04-1.62-.05-3.56.9-5.49,3.04-1.88,2.15-3.5,5.34-4.13,8.88-.68,3.54-.21,6.74.89,8.83,1.1,2.15,2.67,3.09,4.29,3.09s3.56-.95,5.49-3.09c1.88-2.1,3.5-5.29,4.18-8.83Z"/>
          <path class="cls-2" d="m658.27,399.38c-.31,1.5-1.83,2.74-3.4,2.74h-18.67c-.79,0-1.52-.3-1.94-.9-.89-1.15-.47-2.89.89-3.94l17.94-13.32c1.73-1.3,2.77-3.04,3.09-4.79.31-1.55,0-3.09-.94-4.34-1.1-1.4-2.77-2.1-4.6-2.1-1.62,0-3.35.55-4.86,1.65l-1.88,1.4c-1.41,1.05-3.19.95-4.08-.2-.84-1.1-.42-2.84.94-3.89l1.88-1.4c2.77-2.05,6.01-3.09,8.99-3.09,3.4,0,6.59,1.35,8.58,3.94,1.78,2.3,2.3,5.19,1.78,8.03-.58,3.24-2.61,6.54-5.75,8.88l-11.45,8.53h11.09c1.62,0,2.67,1.25,2.41,2.79Z"/>
          <path class="cls-2" d="m688.24,380.87c2.09,2.4,2.77,5.59,2.2,8.73s-2.46,6.34-5.44,8.78c-2.98,2.4-6.54,3.64-9.88,3.64s-6.43-1.25-8.52-3.64c-.94-1.1-.58-2.89.78-3.99s3.24-1.1,4.18,0c1.1,1.3,2.77,1.95,4.6,1.95s3.71-.65,5.39-1.95c1.62-1.35,2.61-3.04,2.93-4.79.31-1.75-.05-3.44-1.15-4.74-1.15-1.35-2.82-1.95-4.6-2-.89.05-1.57-.3-2.04-.9l-.05-.05c-.94-1.1-.63-2.84.68-3.99l6.27-5.19h-8.42c-1.67,0-2.77-1.25-2.46-2.84.26-1.55,1.83-2.79,3.5-2.79h15.43c1.62,0,2.72,1.25,2.41,2.79-.05.5-.31.95-.58,1.35-.21.25-.42.5-.68.7l-7.79,6.49c1.25.6,2.35,1.4,3.24,2.44Z"/>
        </g>
      </g>
    </g>
    <text class="cls-1" transform="translate(291.89 197.94)"><tspan x="0" y="0">天狐</tspan></text>
  </g>
</svg>